<svg width="20" height="20" viewBox="0 0 20 20" fill="none" xmlns="http://www.w3.org/2000/svg">
<path d="M15.5556 7.77778C16.7343 7.77778 17.8648 8.24603 18.6983 9.07953C19.5317 9.91302 20 11.0435 20 12.2222V17.7778C20 18.3671 19.7659 18.9324 19.3491 19.3491C18.9324 19.7659 18.3671 20 17.7778 20H2.22222C1.63285 20 1.06762 19.7659 0.650874 19.3491C0.234126 18.9324 0 18.3671 0 17.7778V12.2222C0 11.0435 0.468252 9.91302 1.30175 9.07953C2.13524 8.24603 3.2657 7.77778 4.44444 7.77778V4.44444H6.66667V7.77778H8.88889V4.44444H11.1111V7.77778H13.3333V4.44444H15.5556V7.77778ZM4.44444 10C3.85507 10 3.28984 10.2341 2.8731 10.6509C2.45635 11.0676 2.22222 11.6329 2.22222 12.2222V13.3333H17.7778V12.2222C17.7778 11.6329 17.5437 11.0676 17.1269 10.6509C16.7102 10.2341 16.1449 10 15.5556 10H4.44444ZM2.22222 15.5556V17.7778H17.7778V15.5556H2.22222ZM4.44444 1.11111C4.73913 1.11111 5.02174 0.994048 5.23012 0.785674C5.43849 0.577301 5.55556 0.294685 5.55556 0C5.85024 0 6.13286 0.117063 6.34123 0.325437C6.5496 0.533811 6.66667 0.816426 6.66667 1.11111V2.22222C6.66667 2.51691 6.5496 2.79952 6.34123 3.0079C6.13286 3.21627 5.85024 3.33333 5.55556 3.33333C5.26087 3.33333 4.97826 3.21627 4.76988 3.0079C4.56151 2.79952 4.44444 2.51691 4.44444 2.22222V1.11111ZM8.88889 1.11111C9.18357 1.11111 9.46619 0.994048 9.67456 0.785674C9.88294 0.577301 10 0.294685 10 0C10.2947 0 10.5773 0.117063 10.7857 0.325437C10.994 0.533811 11.1111 0.816426 11.1111 1.11111V2.22222C11.1111 2.51691 10.994 2.79952 10.7857 3.0079C10.5773 3.21627 10.2947 3.33333 10 3.33333C9.70532 3.33333 9.4227 3.21627 9.21433 3.0079C9.00595 2.79952 8.88889 2.51691 8.88889 2.22222V1.11111ZM13.3333 1.11111C13.628 1.11111 13.9106 0.994048 14.119 0.785674C14.3274 0.577301 14.4444 0.294685 14.4444 0C14.7391 0 15.0217 0.117063 15.2301 0.325437C15.4385 0.533811 15.5556 0.816426 15.5556 1.11111V2.22222C15.5556 2.51691 15.4385 2.79952 15.2301 3.0079C15.0217 3.21627 14.7391 3.33333 14.4444 3.33333C14.1498 3.33333 13.8671 3.21627 13.6588 3.0079C13.4504 2.79952 13.3333 2.51691 13.3333 2.22222V1.11111Z" fill="#979797"/>
</svg>
