<svg width="17" height="27" viewBox="0 0 17 27" fill="none" xmlns="http://www.w3.org/2000/svg">
<path d="M11.0468 5.06176C12.4544 5.06176 13.5964 3.92814 13.5964 2.53088C13.5964 1.13362 12.4544 0 11.0468 0C9.63923 0 8.49724 1.13362 8.49724 2.53088C8.49724 3.92814 9.63923 5.06176 11.0468 5.06176ZM16.0663 12.9233L14.8287 12.3011L14.3134 10.751C13.5326 8.39935 11.3549 6.75428 8.88498 6.74901C6.97281 6.74374 5.9158 7.28155 3.92926 8.07772C2.78195 8.53644 1.8418 9.40643 1.28939 10.5137L0.933514 11.2308C0.519209 12.0639 0.85384 13.0762 1.68776 13.4927C2.51637 13.9093 3.52558 13.5718 3.94519 12.7388L4.30107 12.0217C4.48698 11.6526 4.79505 11.3626 5.17748 11.2097L6.60099 10.6402L5.79363 13.8407C5.51743 14.9375 5.81488 16.1027 6.58506 16.9411L9.76671 20.3894C10.1491 20.8059 10.42 21.3068 10.5581 21.8499L11.5302 25.7148C11.7586 26.6164 12.6828 27.17 13.5911 26.9433C14.4993 26.7166 15.0571 25.7992 14.8287 24.8975L13.6495 20.2049C13.5114 19.6618 13.2405 19.1556 12.8581 18.7443L10.4413 16.1238L11.3549 12.5015L11.647 13.3715C11.9285 14.2204 12.5341 14.9216 13.3308 15.3224L14.5684 15.9445C15.397 16.3611 16.4062 16.0236 16.8258 15.1905C17.2348 14.3627 16.9002 13.3398 16.0663 12.9233ZM3.90801 20.3419C3.73804 20.769 3.48308 21.1539 3.15376 21.4756L0.497963 24.1172C-0.165988 24.7763 -0.165988 25.8466 0.497963 26.5057C1.16191 27.1648 2.23486 27.1648 2.89881 26.5057L6.0539 23.3737C6.37791 23.0521 6.63286 22.6672 6.80815 22.2401L7.52521 20.4579C4.5879 17.2785 5.46962 18.254 5.00751 17.6265L3.90801 20.3419Z" fill="#979797"/>
</svg>
