<svg width="22" height="22" viewBox="0 0 22 22" fill="none" xmlns="http://www.w3.org/2000/svg">
<path fill-rule="evenodd" clip-rule="evenodd" d="M20.3307 8.24933L19.5829 7.50267C19.3451 7.26373 19.2075 6.932 19.2075 6.59493V5.53787C19.2075 3.65413 17.6747 2.1224 15.7909 2.1224H14.7349C14.3925 2.1224 14.0704 1.98907 13.8272 1.74587L13.0805 0.9992C11.7483 -0.334133 9.5808 -0.332 8.24853 0.9992L7.50187 1.74587C7.25867 1.98907 6.93653 2.1224 6.59413 2.1224H5.53813C3.6544 2.1224 2.1216 3.65413 2.1216 5.53787V6.59493C2.1216 6.932 1.984 7.26373 1.74613 7.50267L0.9984 8.24933C-0.3328 9.5816 -0.3328 11.748 0.9984 13.0803L1.74613 13.8269C1.984 14.0659 2.1216 14.3965 2.1216 14.7347V15.7917C2.1216 17.6755 3.6544 19.2072 5.53813 19.2072H6.59413C6.93653 19.2072 7.25867 19.3405 7.50187 19.5837L8.24853 20.3304C8.9152 20.9971 9.78987 21.3288 10.6645 21.3288C11.5392 21.3288 12.4139 20.996 13.0805 20.3304L13.8272 19.5837C14.0704 19.3405 14.3925 19.2072 14.7349 19.2072H15.7909C17.6747 19.2072 19.2075 17.6755 19.2075 15.7917V14.7347C19.2075 14.3965 19.3451 14.0659 19.5829 13.8269L20.3317 13.0803C21.6619 11.748 21.6619 9.5816 20.3307 8.24933ZM13.1083 6.70854L6.70827 13.1085C6.2912 13.5256 6.2912 14.1997 6.70827 14.6168C6.91627 14.8248 7.18933 14.9293 7.4624 14.9293C7.73547 14.9293 8.00853 14.8248 8.21653 14.6168L14.6165 8.2168C15.0336 7.79974 15.0336 7.1256 14.6165 6.70854C14.1995 6.29147 13.5253 6.29147 13.1083 6.70854ZM7.99584 9.596C8.87904 9.596 9.59584 8.8792 9.59584 7.996C9.59584 7.1128 8.87904 6.396 7.99584 6.396C7.11264 6.396 6.39584 7.1128 6.39584 7.996C6.39584 8.8792 7.11264 9.596 7.99584 9.596ZM13.3292 11.7293C12.446 11.7293 11.7292 12.4461 11.7292 13.3293C11.7292 14.2125 12.446 14.9293 13.3292 14.9293C14.2124 14.9293 14.9292 14.2125 14.9292 13.3293C14.9292 12.4461 14.2124 11.7293 13.3292 11.7293ZM18.8224 11.572L18.0747 12.3187C17.4293 12.964 17.0741 13.8216 17.0741 14.7347V15.7917C17.0741 16.4989 16.4992 17.0739 15.7909 17.0739H14.7349C13.8229 17.0739 12.9643 17.4291 12.3189 18.0755L11.5723 18.8221C11.072 19.3224 10.2571 19.3224 9.7568 18.8221L9.01013 18.0755C8.3648 17.4291 7.5072 17.0739 6.59413 17.0739H5.53813C4.82987 17.0739 4.25493 16.4989 4.25493 15.7917V14.7347C4.25493 13.8216 3.89973 12.964 3.2544 12.3187L2.50773 11.572C2.0064 11.0717 2.0064 10.2579 2.50667 9.7576L3.2544 9.01094C3.89973 8.3656 4.25493 7.50694 4.25493 6.59494V5.53787C4.25493 4.83067 4.82987 4.25574 5.53813 4.25574H6.59413C7.5072 4.25574 8.3648 3.90054 9.01013 3.25414L9.7568 2.50747C10.2571 2.0072 11.072 2.0072 11.5723 2.50747L12.3189 3.25414C12.9643 3.90054 13.8229 4.25574 14.7349 4.25574H15.7909C16.4992 4.25574 17.0741 4.83067 17.0741 5.53787V6.59494C17.0741 7.50694 17.4293 8.3656 18.0747 9.01094L18.8224 9.7576C19.3227 10.2579 19.3227 11.0717 18.8224 11.572Z" fill="#C2C2C2"/>
</svg>
