<svg width="30" height="19" viewBox="0 0 30 19" fill="none" xmlns="http://www.w3.org/2000/svg">
<path d="M10.7159 11.4131H15.2588C14.8473 12.5833 14.0701 13.59 13.042 14.284C12.0139 14.9781 10.7897 15.3227 9.55053 15.2668C8.31137 15.2109 7.12313 14.7575 6.16171 13.9738C5.20028 13.19 4.51678 12.1175 4.21236 10.915C3.90794 9.71249 3.99879 8.44394 4.47147 7.2971C4.94414 6.15027 5.77352 5.18611 6.83682 4.54734C7.90013 3.90857 9.14085 3.62915 10.3753 3.75043C11.6098 3.8717 12.7724 4.38724 13.6911 5.22073C13.8072 5.32761 13.9594 5.38669 14.1172 5.38615C14.275 5.38561 14.4268 5.3255 14.5422 5.21783L16.2108 3.64562C16.2725 3.58731 16.3216 3.51701 16.3552 3.43904C16.3888 3.36107 16.4061 3.27707 16.4061 3.19217C16.4061 3.10727 16.3888 3.02326 16.3552 2.94529C16.3216 2.86732 16.2725 2.79702 16.2108 2.73871C14.5316 1.14373 12.3161 0.235243 10.0006 0.19215C8.17555 0.155825 6.38018 0.657253 4.8381 1.63397C3.29602 2.61069 2.07539 4.01953 1.32826 5.68499C0.581123 7.35046 0.340508 9.19894 0.636386 11.0002C0.932263 12.8014 1.75155 14.4758 2.99221 15.8147C4.23286 17.1537 5.84003 18.098 7.61352 18.5301C9.38702 18.9622 11.2484 18.8629 12.9659 18.2447C14.6834 17.6265 16.1811 16.5166 17.2723 15.0533C18.3635 13.59 19.0001 11.838 19.1028 10.0155C19.1098 9.9543 19.1148 7.88064 19.1148 7.88064H10.7159C10.5505 7.88064 10.392 7.94634 10.275 8.06326C10.1581 8.18019 10.0924 8.33879 10.0924 8.50415V10.7884C10.0922 10.8704 10.1083 10.9516 10.1395 11.0274C10.1708 11.1032 10.2167 11.1721 10.2746 11.2301C10.3325 11.2881 10.4013 11.3342 10.477 11.3656C10.5527 11.397 10.6339 11.4131 10.7159 11.4131Z" fill="white"/>
<path d="M26.8124 8.08916V5.85746C26.8124 5.71261 26.7548 5.5737 26.6524 5.47128C26.55 5.36886 26.4111 5.31132 26.2662 5.31132H24.3879C24.243 5.31132 24.1041 5.36886 24.0017 5.47128C23.8993 5.5737 23.8417 5.71261 23.8417 5.85746V8.08916H21.6096C21.4648 8.08916 21.3259 8.1467 21.2234 8.24912C21.121 8.35154 21.0635 8.49045 21.0635 8.6353V10.5137C21.0635 10.6585 21.121 10.7974 21.2234 10.8998C21.3259 11.0023 21.4648 11.0598 21.6096 11.0598H23.8413V13.2932C23.8413 13.438 23.8989 13.5769 24.0013 13.6793C24.1037 13.7818 24.2426 13.8393 24.3875 13.8393H26.2658C26.4107 13.8393 26.5496 13.7818 26.652 13.6793C26.7544 13.5769 26.812 13.438 26.812 13.2932V11.059H29.0437C29.1885 11.059 29.3274 11.0014 29.4298 10.899C29.5323 10.7966 29.5898 10.6577 29.5898 10.5128V8.63447C29.5898 8.48963 29.5323 8.35072 29.4298 8.2483C29.3274 8.14588 29.1885 8.08833 29.0437 8.08833L26.8124 8.08916Z" fill="white"/>
</svg>
