<svg width="99" height="78" viewBox="0 0 99 78" fill="none" xmlns="http://www.w3.org/2000/svg">
<path d="M74.23 48.06C81.17 49.05 92.98 45.58 95.38 50.93H3C4.17 45.71 17.42 48.96 24.4 48.06C26.13 36.07 31.58 28.08 41.17 24.54C42.31 28.53 39.13 28.49 37.04 30.03C31.66 33.97 28.74 39.53 27.56 48.06H71.32C70.34 37.1 64.77 31.06 56.98 27.42V24.28C66.8 27.83 73.1 35.17 74.23 48.06Z" fill="#245FAA"/>
<path d="M48.24 9.39H49.94C51.48 14.74 50.03 21.47 49.46 26.9H47.76C48.19 21.45 49.46 14.99 48.24 9.39Z" fill="#245FAA"/>
<path d="M44.11 9H45.81C46.98 12.6 46.07 18.82 45.57 23.11C45.37 24.83 45.88 27.34 43.87 27.29C43.35 21.6 45.59 15 44.11 9Z" fill="#245FAA"/>
<path d="M54.8 9.13C53 14.55 55.36 22.69 55.04 27.16C54.47 27.08 54.13 26.75 53.34 26.9C53.05 21.16 51.6 14.92 52.85 9.13H54.8Z" fill="#245FAA"/>
</svg>
