<svg width="32" height="29" viewBox="0 0 32 29" fill="none" xmlns="http://www.w3.org/2000/svg">
<path d="M21.6384 9.04071C21.5525 8.76031 21.6041 8.55638 21.8102 8.36095C22.3514 7.82565 22.5318 7.1289 22.317 6.39817C22.171 5.90535 21.8961 5.56547 21.8532 5.51449C21.7329 5.37004 21.5439 5.27657 21.3378 5.27657C20.9684 5.27657 20.6763 5.57397 20.6763 5.93084C20.6763 6.09228 20.7365 6.23673 20.8309 6.35568C20.8309 6.35568 20.9684 6.53412 21.0371 6.76354C21.1144 7.03544 21.0629 7.23087 20.8653 7.4263C20.3241 7.9616 20.1437 8.66684 20.3585 9.40608C20.5045 9.90739 20.788 10.2643 20.8138 10.2983C20.934 10.4512 21.123 10.5447 21.3292 10.5447C21.6985 10.5447 21.9992 10.2473 21.9992 9.8819C21.9992 9.72896 21.9477 9.58451 21.8532 9.46556C21.8446 9.47405 21.7071 9.27862 21.6384 9.04071Z" fill="white"/>
<path d="M16.1236 5.97333C15.969 5.36156 16.0893 4.85174 16.5016 4.39291C17.2146 3.5942 17.4379 2.61705 17.1544 1.57193C16.9569 0.832698 16.5703 0.322883 16.5274 0.263404C16.4071 0.101963 16.2181 0 15.9948 0C15.634 0 15.3333 0.297392 15.3333 0.662759C15.3333 0.807207 15.3849 0.951655 15.4708 1.06211C15.4708 1.06211 15.7543 1.43598 15.8745 1.94579C16.0291 2.54908 15.9089 3.06739 15.4966 3.52622C14.7836 4.32493 14.5602 5.30208 14.8437 6.3472C15.0413 7.08643 15.4278 7.59624 15.4708 7.65572C15.5911 7.81716 15.78 7.91913 16.0034 7.91913C16.3727 7.91913 16.6734 7.62174 16.6734 7.26487C16.6734 7.11192 16.6219 6.97597 16.536 6.86551C16.536 6.84852 16.2525 6.47465 16.1236 5.97333Z" fill="white"/>
<path d="M10.978 9.04071C10.9007 8.76031 10.9437 8.55638 11.1498 8.36095C11.691 7.82565 11.8714 7.1289 11.6566 6.39817C11.5106 5.90535 11.2271 5.55697 11.1928 5.51449C11.0725 5.37004 10.8835 5.27657 10.6774 5.27657C10.308 5.27657 10.0073 5.57397 10.0073 5.93084C10.0073 6.09228 10.0675 6.23673 10.162 6.35568C10.162 6.35568 10.308 6.53412 10.3681 6.76354C10.4454 7.03544 10.3939 7.23087 10.1963 7.4263C9.65514 7.9616 9.47475 8.66684 9.6895 9.40608C9.83553 9.90739 10.119 10.2643 10.1448 10.2983C10.265 10.4512 10.454 10.5447 10.6602 10.5447C11.0296 10.5447 11.3216 10.2473 11.3216 9.8819C11.3216 9.72896 11.2701 9.58451 11.1756 9.46556C11.1928 9.47405 11.0467 9.27862 10.978 9.04071Z" fill="white"/>
<path d="M31.3194 27.6745H30.6579C30.6579 20.2821 25.0658 14.1899 17.8416 13.2892C17.9446 13.0513 17.9962 12.7879 17.9962 12.516C17.9962 11.4284 17.1028 10.5362 15.9947 10.5362C14.8866 10.5362 13.9932 11.4199 13.9932 12.516C13.9932 12.7879 14.0533 13.0513 14.1478 13.2892C6.92359 14.1814 1.33146 20.2821 1.33146 27.6745H0.670026C0.300653 27.6745 0 27.9719 0 28.3372C0 28.7026 0.300653 29 0.670026 29H31.3108C31.6802 29 31.9808 28.7026 31.9808 28.3372C31.9894 27.9719 31.6888 27.6745 31.3194 27.6745ZM16.0033 11.8617C16.3727 11.8617 16.6733 12.1591 16.6733 12.5245C16.6733 12.8898 16.3727 13.1872 16.0033 13.1872C15.6339 13.1872 15.3333 12.8813 15.3333 12.5245C15.3333 12.1591 15.6339 11.8617 16.0033 11.8617ZM4.68159 27.6745C4.68159 26.162 4.98224 24.692 5.56636 23.3155C6.13331 21.9815 6.95795 20.7835 7.99735 19.7553C9.03675 18.7272 10.2479 17.92 11.5966 17.3507C12.9882 16.7644 14.4743 16.4755 16.0033 16.4755C16.3727 16.4755 16.6733 16.1781 16.6733 15.8128C16.6733 15.4474 16.3727 15.1585 16.0033 15.1585C9.01098 15.1585 3.35013 20.7665 3.35013 27.6745H2.68869C2.68869 25.8986 3.04088 24.1652 3.73668 22.5423C4.4067 20.9704 5.36879 19.5599 6.58858 18.3533C7.80837 17.1383 9.23432 16.1951 10.8235 15.5324C12.4642 14.8441 14.208 14.4957 16.0119 14.4957C17.8072 14.4957 19.5596 14.8441 21.2003 15.5324C22.7894 16.1951 24.2154 17.1468 25.4352 18.3533C26.6636 19.5599 27.6171 20.9704 28.2871 22.5423C28.9829 24.1652 29.3351 25.8901 29.3351 27.6745H4.68159Z" fill="white"/>
</svg>
