<svg width="38" height="38" viewBox="0 0 38 38" fill="none" xmlns="http://www.w3.org/2000/svg">
<g clip-path="url(#clip0)">
<path d="M26.7258 7.22C25.6175 5.58916 24.3508 4.06916 22.9258 2.7075C22.3717 2.16916 21.4375 2.67583 21.5958 3.43583C21.8967 4.92416 22.2133 6.8875 22.2133 8.645C22.2133 11.9067 20.0758 14.5508 16.8142 14.5508C14.3758 14.5508 12.3808 13.0783 11.51 10.9725C11.3517 10.6558 11.2883 10.4658 11.1933 10.1175C11.0192 9.4525 10.1483 9.24666 9.76833 9.8325C9.48333 10.26 9.21417 10.6875 8.96083 11.1467C7.07667 14.3767 6 18.145 6 22.1667C6 29.165 11.6683 34.8333 18.6667 34.8333C25.665 34.8333 31.3333 29.165 31.3333 22.1667C31.3333 16.6408 29.6233 11.5108 26.7258 7.22ZM18.2075 30.0833C15.3892 30.0833 13.1092 27.8667 13.1092 25.1117C13.1092 22.5467 14.7717 20.7417 17.5583 20.1717C19.8858 19.6967 22.2767 18.6992 23.9392 17.1317C24.3825 16.72 25.1108 16.91 25.2375 17.4958C25.6017 19.1108 25.7917 20.7892 25.7917 22.4833C25.8075 26.6792 22.4033 30.0833 18.2075 30.0833Z" fill="#245FAA"/>
</g>
<defs>
<clipPath id="clip0">
<rect width="38" height="38" fill="white"/>
</clipPath>
</defs>
</svg>
