<svg width="24" height="18" viewBox="0 0 24 18" fill="none" xmlns="http://www.w3.org/2000/svg">
<path d="M20.7273 4.36364H17.4545V0H2.18182C0.981818 0 0 0.981818 0 2.18182V14.1818H2.18182C2.18182 15.9927 3.64364 17.4545 5.45455 17.4545C7.26545 17.4545 8.72727 15.9927 8.72727 14.1818H15.2727C15.2727 15.9927 16.7345 17.4545 18.5455 17.4545C20.3564 17.4545 21.8182 15.9927 21.8182 14.1818H24V8.72727L20.7273 4.36364ZM5.45455 15.8182C4.54909 15.8182 3.81818 15.0873 3.81818 14.1818C3.81818 13.2764 4.54909 12.5455 5.45455 12.5455C6.36 12.5455 7.09091 13.2764 7.09091 14.1818C7.09091 15.0873 6.36 15.8182 5.45455 15.8182ZM20.1818 6L22.32 8.72727H17.4545V6H20.1818ZM18.5455 15.8182C17.64 15.8182 16.9091 15.0873 16.9091 14.1818C16.9091 13.2764 17.64 12.5455 18.5455 12.5455C19.4509 12.5455 20.1818 13.2764 20.1818 14.1818C20.1818 15.0873 19.4509 15.8182 18.5455 15.8182Z" fill="black"/>
</svg>
