<?xml version="1.0" encoding="utf-8"?>
<!-- Generator: Adobe Illustrator 16.0.0, SVG Export Plug-In . SVG Version: 6.00 Build 0)  -->
<!DOCTYPE svg PUBLIC "-//W3C//DTD SVG 1.1//EN" "http://www.w3.org/Graphics/SVG/1.1/DTD/svg11.dtd">
<svg version="1.1" id="Layer_1" xmlns="http://www.w3.org/2000/svg" xmlns:xlink="http://www.w3.org/1999/xlink" x="0px" y="0px"
	 width="261.674px" height="261.674px" viewBox="0 0 261.674 261.674" enable-background="new 0 0 261.674 261.674"
	 xml:space="preserve">
<g>
	<path fill-rule="evenodd" clip-rule="evenodd" fill="#256AAE" d="M40.798,131.953c-2.018-0.217-3.935-0.217-5.764-0.653
		c-4.926-1.191-7.96-5.847-7.363-10.958c0.592-4.854,4.799-8.651,9.745-8.679c7.533-0.05,15.026-0.009,22.466-0.009
		c0,2.041-0.122,3.918,0.014,5.777c0.678,8.302,6.637,15.135,14.749,16.995c8.01,1.844,16.356-1.613,20.61-8.649
		c2.487-4.12,4.881-8.315,7.227-12.519c0.639-1.161,1.332-1.652,2.702-1.646c17.093,0.057,34.205,0.057,51.291-0.007
		c1.384,0,2.092,0.497,2.702,1.648c2.148,3.897,4.363,7.771,6.608,11.605c5.015,8.511,14.417,12.102,23.312,8.938
		c8.808-3.139,13.725-11.719,12.322-21.463c-0.008-0.146-0.008-0.29-0.008-0.69c2.549,0,5.1,0,7.615,0
		c4.904,0,9.803-0.006,14.695,0.009c5.824,0.009,10.165,4.071,10.351,9.647c0.187,5.639-4.038,10.326-9.894,10.342
		c-2.764,0.016-3.528,0.953-4.193,3.482c-6.258,23.996-12.679,47.944-19.07,71.901c-1.938,7.182-8.205,11.992-15.642,11.999
		c-36.251,0.009-72.5,0.009-108.737,0c-7.533,0-13.887-4.804-15.823-12.095c-6.517-24.392-12.938-48.795-19.421-73.197
		C41.132,133.118,40.946,132.497,40.798,131.953z M184.222,176.938L184.222,176.938c0-6.93,0-13.864,0.018-20.8
		c0-3.873-2.162-6.426-5.543-6.484c-3.49-0.063-5.872,2.519-5.872,6.451c-0.013,13.87-0.013,27.729,0,41.599
		c0,3.98,2.304,6.517,5.813,6.481c3.36-0.043,5.585-2.59,5.585-6.451C184.222,190.806,184.222,183.875,184.222,176.938z
		 M120.644,176.974L120.644,176.974c0-7.022,0.018-14.03,0-21.051c0-3.688-2.259-6.225-5.566-6.27
		c-3.412-0.046-5.838,2.501-5.838,6.276c-0.029,14.036-0.029,28.064,0.025,42.098c0,1.124,0.317,2.344,0.822,3.334
		c1.133,2.229,3.762,3.277,6.162,2.719c2.591-0.612,4.359-2.888,4.381-5.84C120.661,191.152,120.644,184.06,120.644,176.974z
		 M152.448,176.974h0.018c0-7.09,0.03-14.175-0.018-21.267c-0.026-3.665-2.457-6.117-5.795-6.054
		c-3.242,0.059-5.514,2.519-5.549,6.06c-0.026,4.381-0.014,8.771-0.014,13.146c0,9.799-0.013,19.589,0.014,29.381
		c0,3.687,2.582,6.147,6.077,5.936c3.038-0.186,5.223-2.662,5.24-6.161C152.479,191.009,152.448,183.988,152.448,176.974z
		 M88.845,176.821c0-2.995,0.014-5.993,0-8.987c-0.016-4.384,0.097-8.767-0.133-13.14c-0.155-3.109-2.803-5.17-5.811-5.033
		c-2.997,0.131-5.362,2.46-5.38,5.547c-0.035,14.47-0.044,28.938,0,43.404c0.018,3.61,3.169,6.132,6.624,5.515
		c2.89-0.508,4.671-2.88,4.684-6.482C88.876,190.707,88.845,183.77,88.845,176.821z"/>
	<path fill-rule="evenodd" clip-rule="evenodd" fill="#256AAE" d="M78.765,125.668c-7.738-0.056-12.305-8.216-8.374-15.122
		c5.194-9.146,10.469-18.235,15.704-27.338c6.781-11.771,13.523-23.54,20.353-35.282c3.003-5.176,9.05-6.759,13.979-3.817
		c4.852,2.895,6.199,8.882,3.184,14.159c-6.074,10.567-12.192,21.113-18.275,31.678c-5.77,10.059-11.547,20.139-17.332,30.19
		C85.763,124.037,82.901,125.704,78.765,125.668z"/>
	<path fill-rule="evenodd" clip-rule="evenodd" fill="#256AAE" d="M182.603,125.914c-4.08-0.331-6.954-2.221-8.935-5.672
		c-7.586-13.228-15.19-26.438-22.815-39.653c-4.395-7.65-8.848-15.27-13.197-22.965c-2.388-4.194-1.463-9.357,2.011-12.394
		c3.597-3.158,8.937-3.448,12.721-0.529c1.122,0.86,2.12,2.041,2.829,3.271c11.969,20.73,23.912,41.477,35.805,62.243
		c3.32,5.775,1.354,12.258-4.457,14.692C185.335,125.435,183.916,125.583,182.603,125.914z"/>
</g>
</svg>
