<svg width="22" height="21" viewBox="0 0 22 21" fill="none" xmlns="http://www.w3.org/2000/svg">
<path d="M6.16687 11.7436L9.42303 8.48748L2.3009 1.37686C1.74862 0.824575 0.793637 0.974151 0.448462 1.68751C-0.368454 3.40189 -0.0693021 5.50746 1.34592 6.93419L6.16687 11.7436ZM13.9678 9.66107C15.7282 10.478 18.202 9.9027 20.0314 8.07327C22.2291 5.87565 22.6548 2.72304 20.9634 1.03168C19.2836 -0.648175 16.1309 -0.233964 13.9218 1.96366C12.0924 3.79309 11.5171 6.26685 12.334 8.02724L1.92121 18.44C1.47248 18.8888 1.47248 19.6136 1.92121 20.0624C2.36994 20.5111 3.09481 20.5111 3.54354 20.0624L10.6542 12.9748L17.7648 20.0854C18.2135 20.5341 18.9384 20.5341 19.3871 20.0854C19.8358 19.6367 19.8358 18.9118 19.3871 18.4631L12.2765 11.3524L13.9678 9.66107Z" fill="black"/>
</svg>
