<?xml version="1.0" encoding="utf-8"?>
<!-- Generator: Adobe Illustrator 16.0.0, SVG Export Plug-In . SVG Version: 6.00 Build 0)  -->
<!DOCTYPE svg PUBLIC "-//W3C//DTD SVG 1.1//EN" "http://www.w3.org/Graphics/SVG/1.1/DTD/svg11.dtd">
<svg version="1.1" id="Layer_1" xmlns="http://www.w3.org/2000/svg" xmlns:xlink="http://www.w3.org/1999/xlink" x="0px" y="0px"
	 width="261.675px" height="261.674px" viewBox="0 0 261.675 261.674" enable-background="new 0 0 261.675 261.674"
	 xml:space="preserve">
<g>
	<path fill-rule="evenodd" clip-rule="evenodd" fill="#3D3D3D" d="M124.905,35.885c3.957,0,7.914,0,11.863,0
		c0.488,0.107,0.953,0.24,1.441,0.309c4.387,0.645,8.828,1.059,13.164,1.955c36.848,7.66,66.855,39.016,72.934,76.137
		c0.578,3.516,0.98,7.068,1.469,10.602c0,3.957,0,7.906,0,11.869c-0.516,3.781-0.895,7.59-1.57,11.344
		c-10.07,55.77-67.469,90.34-121.75,73.338c-46.863-14.684-74.785-62.686-64.395-110.732c8.184-37.799,38.301-66.686,76.602-73.396
		C118.054,36.708,121.487,36.354,124.905,35.885z M127.069,195.37c19.656,0.043,35.043-5.764,47.145-16.313
		c0.898-0.785,1.246-1.529,1.074-2.701c-2.336-15.543-10.316-27.1-24.215-34.543c-1.082-0.584-1.93-0.592-3.078-0.07
		c-11.453,5.256-22.926,5.252-34.375-0.047c-1.063-0.49-1.883-0.5-2.91,0.047c-13.953,7.473-22.004,19.043-24.324,34.674
		c-0.18,1.209,0.273,1.926,1.148,2.674C99.972,189.78,114.401,195.159,127.069,195.37z M130.851,139.532
		c17.223-0.061,31.094-13.963,31.066-31.145c-0.027-17.111-14.07-31.014-31.266-30.955c-17.031,0.059-30.949,14.1-30.883,31.15
		C99.823,125.665,113.8,139.573,130.851,139.532z"/>
	<path fill-rule="evenodd" clip-rule="evenodd" fill="#FFFFFF" d="M127.069,195.37c-12.668-0.211-27.098-5.59-39.535-16.279
		c-0.875-0.748-1.328-1.465-1.148-2.674c2.32-15.631,10.371-27.201,24.324-34.674c1.027-0.547,1.848-0.537,2.91-0.047
		c11.449,5.299,22.922,5.303,34.375,0.047c1.148-0.521,1.996-0.514,3.078,0.07c13.898,7.443,21.879,19,24.215,34.543
		c0.172,1.172-0.176,1.916-1.074,2.701C162.112,189.606,146.726,195.413,127.069,195.37z"/>
	<path fill-rule="evenodd" clip-rule="evenodd" fill="#FFFFFF" d="M130.851,139.532c-17.051,0.041-31.027-13.867-31.082-30.949
		c-0.066-17.051,13.852-31.092,30.883-31.15c17.195-0.059,31.238,13.844,31.266,30.955
		C161.944,125.569,148.073,139.471,130.851,139.532z"/>
</g>
</svg>
