<?xml version="1.0" encoding="utf-8"?>
<!-- Generator: Adobe Illustrator 16.0.0, SVG Export Plug-In . SVG Version: 6.00 Build 0)  -->
<!DOCTYPE svg PUBLIC "-//W3C//DTD SVG 1.1//EN" "http://www.w3.org/Graphics/SVG/1.1/DTD/svg11.dtd">
<svg version="1.1" id="Layer_1" xmlns="http://www.w3.org/2000/svg" xmlns:xlink="http://www.w3.org/1999/xlink" x="0px" y="0px"
	 width="276.397px" height="291.344px" viewBox="0 0 276.397 291.344" enable-background="new 0 0 276.397 291.344"
	 xml:space="preserve">
<g>
	<g>
		<g>
			<polygon fill="#3DAA49" points="250.096,279.813 250.096,227.304 139.172,258.095 			"/>
			<polygon fill="#256AAE" points="26.303,11.53 24.359,279.813 141.539,257.649 250.096,237.12 252.039,11.53 			"/>
		</g>
	</g>
	<g>
		<g>
			<path fill="#FFFFFF" d="M186.91,127.99c13.52,1.923,36.486-4.821,41.15,5.598H48.338c2.275-10.153,28.047-3.835,41.629-5.598
				c3.361-23.321,13.955-38.877,32.629-45.749c2.219,7.769-3.969,7.688-8.041,10.68c-10.461,7.669-16.139,18.479-18.445,35.069
				h85.137c-1.918-21.326-12.732-33.075-27.908-40.157v-6.097C172.463,88.634,184.707,102.918,186.91,127.99"/>
			<path fill="#FFFFFF" d="M136.359,52.77h3.303c2.994,10.419,0.182,23.51-0.949,34.061h-3.316
				C136.268,76.228,138.713,63.655,136.359,52.77"/>
			<path fill="#FFFFFF" d="M128.318,52.006h3.309c2.273,7.001,0.508,19.103-0.469,27.454c-0.398,3.344,0.6,8.222-3.316,8.132
				C126.832,76.509,131.199,63.693,128.318,52.006"/>
			<path fill="#FFFFFF" d="M149.102,52.258c-3.486,10.554,1.094,26.374,0.471,35.084c-1.111-0.166-1.77-0.8-3.307-0.512
				c-0.578-11.169-3.389-23.296-0.951-34.572H149.102z"/>
		</g>
		<g>
			<path fill="#FFFFFF" d="M81.195,154.033c2.9-0.936,4.451-1.348,5.387-1.754c0.412,0.098,0.518,0.309,0.209,0.615
				c-0.824,0.524-1.344,1.241-1.557,2.385c-1.758,9.416-3.209,31.882-3.209,39.02c0,2.798,0.934,1.66,1.756,0.525
				c4.457-5.904,28.682-34.375,34.066-39.545c2.17-1.042,5.898-1.97,7.867-3.218c0.41,0,0.83,0.421,0.516,0.833
				c-2.381,0.935-3.207,1.241-3.822,3.214c-3.318,10.552-7.455,29.187-7.455,39.747c0,1.963,1.025,2.592,2.273,2.592
				c1.242,0,2.896-0.314,4.143-0.831c0.301,0,0.406,0.413,0.094,0.723c-2.893,0.831-7.754,2.277-9.828,2.9
				c-1.658,0-2.795-0.519-2.994-2.175c0.305-5.689,8.172-37.067,8.688-39.137c0.52-2.063-0.207-1.651-1.238-0.719
				c-7.871,7.036-24.537,26.916-32.818,38.924c-0.313,0.513-0.738,1.352-1.033,2.277c-2.59,0.102-3.627,0.726-4.971,1.968
				c-0.313,0.104-0.623,0.104-0.729-0.211c1.143-8.584,3.211-37.676,3.525-43.06c0-1.242-0.623-1.242-1.662,0
				c-8.076,9.104-23.189,29.295-28.984,39.647c-2.486,4.552-2.592,6.624-2.486,8.072c0.109,1.451-0.414,1.036-0.83,0.212
				c-0.414-0.834-0.621-2.381-1.246-5.284C45.996,197.199,72.396,164.491,81.195,154.033z"/>
			<path fill="#FFFFFF" d="M135.338,199.987c-2.07,0.833-3.732,1.148-5.279,1.148c-3.619,0-5.695-1.552-5.695-4.767
				c0-1.138,0.207-2.374,0.828-3.93c2.59-6.417,7.77-11.81,13.256-14.184c0.717-0.313,1.447-0.517,2.07-0.517
				c2.48,0,3.82,1.14,3.82,3c0,0.931-0.201,1.768-0.715,2.381c-0.422,0.412-1.148,1.035-2.082,1.762l-0.305-0.103
				c0.199-0.526,0.305-1.144,0.305-1.763c0-1.347-1.023-2.9-3.209-2.9c-5.164,0-10.031,7.462-10.031,15.217
				c0,2.902,1.758,4.346,4.141,4.346c3.83,0,10.967-4.447,18.316-13.554c0.729-0.727,1.139-0.103,0.525,0.516
				C147.031,191.824,140.613,197.926,135.338,199.987z"/>
			<path fill="#FFFFFF" d="M164.525,198.447c5.072-6.216,21.43-31.58,24.125-39.757c0.105-0.311,0.205-0.725,0.205-1.141
				c0-0.927-1.033-1.135-2.791-1.135c-1.662,0-3.936,0.104-5.697,0.518l-0.311-0.104c0.105-0.519,0.311-0.93,0.617-1.243
				c5.801-0.208,11.803-0.617,15.736-1.243c0.314,0.207,0.52,0.516,0.52,0.828c0,0.207-0.205,0.312-0.623,0.415
				c-1.027,0.313-1.652,1.347-2.379,2.591c-5.701,10.658-15.316,27.643-23.396,39.749c-1.035,1.445-2.582,2.379-3.83,2.586
				c-1.551,0.209-3.521,0.309-4.869,0.209c-0.205-0.104-0.205-0.311-0.205-0.516C162.664,200.098,163.908,199.271,164.525,198.447z"
				/>
			<path fill="#FFFFFF" d="M198.059,181.67c-0.4-0.931-1.234-1.341-2.58-1.341c-1.961,0-4.342,1.134-4.342,3.307
				c0,1.144,0.719,2.077,1.961,3.834c1.146,1.657,2.275,3.313,2.275,5.078c0,7.131-7.762,8.897-10.455,8.897
				c-4.244,0-6.518-1.458-6.932-4.246c0.625-0.414,1.756-1.135,2.176-1.659c0.309,0,0.205,0.104,0.309,0.419
				c0.723,2.488,2.799,4.553,5.381,4.553c2.174,0,6.527-0.524,6.527-5.28c0-1.753-0.836-3.304-1.656-4.555
				c-0.83-1.341-1.867-2.686-1.867-4.347c0-3.313,5.18-8.178,9.203-8.178c1.145,0,1.66,0.207,1.66,1.036
				c-0.408,0.617-0.926,1.656-1.141,2.381C198.371,181.879,198.168,181.879,198.059,181.67z"/>
			<path fill="#FFFFFF" d="M212.559,197.713c-2.688,1.771-5.793,2.799-8.184,2.799c-1.752,0-4.547-0.524-4.547-3.516
				c0-3.621,6.313-13.567,8.48-16.667c0.732-1.033,3.008-1.97,3.521-1.97c0.42,0,0.521,0.101,0.521,0.307
				c0,0.315-0.305,0.933-0.521,1.243c-3.723,5.593-7.76,13.775-7.76,16.771c0,1.659,1.033,2.385,2.484,2.385
				c5.492,0,14.078-8.388,17.186-12.637c0.727-0.715,0.727-0.203,0.406,0.522C220.836,191.196,216.186,195.333,212.559,197.713z
				 M215.979,167.592c-0.938,0-1.244-0.41-1.244-1.238c0-1.765,1.557-3.831,3.42-3.831c0.822,0,1.336,0.515,1.336,1.341
				C219.49,165.522,217.736,167.592,215.979,167.592z"/>
		</g>
	</g>
</g>
</svg>
