<svg width="28" height="20" viewBox="0 0 28 20" fill="none" xmlns="http://www.w3.org/2000/svg">
<path d="M23.8 14C24.57 14 25.2 14.63 25.2 15.4C25.2 16.17 24.57 16.8 23.8 16.8C23.03 16.8 22.4 16.17 22.4 15.4C22.4 14.63 23.03 14 23.8 14ZM23.8 11.2C21.476 11.2 19.6 13.076 19.6 15.4C19.6 17.724 21.476 19.6 23.8 19.6C26.124 19.6 28 17.724 28 15.4C28 13.076 26.124 11.2 23.8 11.2ZM11.2 1.4H4.2V4.2H11.2V1.4ZM21 0H16.8V2.8H21V6.51L16.1 12.6H11.2V5.6H5.6C2.506 5.6 0 8.106 0 11.2V15.4H2.8C2.8 17.724 4.676 19.6 7 19.6C9.324 19.6 11.2 17.724 11.2 15.4H17.5L23.8 7.49V2.8C23.8 2.05739 23.505 1.3452 22.9799 0.820101C22.4548 0.294999 21.7426 0 21 0ZM7 16.8C6.23 16.8 5.6 16.17 5.6 15.4H8.4C8.4 16.17 7.77 16.8 7 16.8Z" fill="#979797"/>
</svg>
